# xmcd CD database file generated by OrangeCD 5.1
#
# Track frame offsets:
#	150
#	12795
#	24850
#	37242
#	49325
#	60949
#	72597
#	85181
#	96940
#	110488
#	123157
#	136239
#	147319
#	159435
#	171757
#	183767
#	196018
#	208591
#	221024
#	232595
#	244474
#	256835
#	268295
#	281038
#	292690
#
# Disc length: 4069 seconds
#
# Revision: 2
# Processed by: cddbd v1.4PL0 Copyright (c) Steve Scherf et al.
# Submitted via: OrangeCD 5.1
#
DISCID=630fe319
DTITLE=Hopkins, Lightnin' - All The Classics 1946 - 1951 [CDB)
DYEAR=2003
DGENRE=Blues
TTITLE0=Morning Blues
TTITLE1=Have To Let You Go
TTITLE2=Baby Child
TTITLE3=Mistreater Blues
TTITLE4=My California
TTITLE5=Honey Honey Blues
TTITLE6=So Long
TTITLE7=See See Rider
TTITLE8=Changing Weather Blues
TTITLE9=I Just Don't Care
TTITLE10=Whiskey Headed Woman
TTITLE11=Abilene
TTITLE12=Shotgun
TTITLE13=Rollin' Blues
TTITLE14=Tell It Like It Is
TTITLE15=Miss Loretta
TTITLE16=Shining Moon
TTITLE17=Ida Mae
TTITLE18=Mercy
TTITLE19=What Can It Be
TTITLE20=Lonesome Home
TTITLE21=Appetite Blues
TTITLE22=Walking Blues
TTITLE23=Lightning Blues
TTITLE24=No Mail Blues
EXTD=
EXTT0=
EXTT1=
EXTT2=
EXTT3=
EXTT4=
EXTT5=
EXTT6=
EXTT7=
EXTT8=
EXTT9=
EXTT10=
EXTT11=
EXTT12=
EXTT13=
EXTT14=
EXTT15=
EXTT16=
EXTT17=
EXTT18=
EXTT19=
EXTT20=
EXTT21=
EXTT22=
EXTT23=
EXTT24=
PLAYORDER=
